# xmcd
#
# Track frame offsets:
#	150
#	17593
#	38353
#	55455
#	66590
#	73898
#	96503
#	115268
#	131143
#	149158
#	164890
#	183685
#	199483
#	218298
#	229898
#	250043
#	266070
#	276233
#	293403
#	308990
#
# Disc length: 4404 seconds
#
# Revision: 1
# Processed by: cddbd v1.5.1PL0 Copyright (c) Steve Scherf et al.
# Submitted via: CDex 1.50Beta5
#
DISCID=49113214
DTITLE=さまざまなアーティスト - こどものうた
DYEAR=1900
DGENRE=
TTITLE0=ゆずれない願い
TTITLE1=輝きは君の中に
TTITLE2=君が好きだと叫びたい
TTITLE3=ロックン・オムレツ
TTITLE4=ポストマンパットのうた
TTITLE5=東京は夜の七時
TTITLE6=うれしい予感
TTITLE7=ヤッホー!しんかんせん
TTITLE8=フッフッフッってするんです
TTITLE9=パレード
TTITLE10=ガニ
TTITLE11=歩いて帰ろう
TTITLE12=微笑みの爆弾
TTITLE13=2001ねんガチャピンキッド
TTITLE14=MOMENT
TTITLE15=ばあちゃん
TTITLE16=なっとうをおおいしくたべるには
TTITLE17=年がらノー天気
TTITLE18=タツジンになるんだもん
TTITLE19=Child's days memory
EXTD=
EXTT0=
EXTT1=
EXTT2=
EXTT3=
EXTT4=
EXTT5=
EXTT6=
EXTT7=
EXTT8=
EXTT9=
EXTT10=
EXTT11=
EXTT12=
EXTT13=
EXTT14=
EXTT15=
EXTT16=
EXTT17=
EXTT18=
EXTT19=
PLAYORDER=
